<svg xmlns="http://www.w3.org/2000/svg" viewBox="0 0 259.81 37.88"><defs><style>.cls-1{fill:#32bfbb;}</style></defs><title>Asset 107</title><g id="Layer_2" data-name="Layer 2"><g id="Layer_1-2" data-name="Layer 1"><path class="cls-1" d="M-163.82-199.46a9.35,9.35,0,0,0-7.36-3.47c-5.38,0-9.45,4.3-9.45,10s4,10,9.45,10a9.48,9.48,0,0,0,7.21-3.27l2.31,1.43a12.2,12.2,0,0,1-9.52,4.21A12.09,12.09,0,0,1-183.48-193a12,12,0,0,1,12.3-12.33A12.19,12.19,0,0,1-162-201.6" transform="translate(240 212)"/><polygon class="cls-1" points="97.39 31.05 97.39 19.3 85.63 19.3 85.63 31.05 80.89 31.05 80.89 29.12 82.81 29.12 82.81 7.1 85.63 7.1 85.63 16.97 97.39 16.97 97.39 7.1 100.22 7.1 100.22 31.05 97.39 31.05"/><path class="cls-1" d="M-117.76-180.95l-2.28-6.7h-10.35l-2.25,6.7h-2.59l7.55-22h-1v-1.93h5.43l8,24Zm-11.92-9h8.92l-4.35-13.44Z" transform="translate(240 212)"/><polygon class="cls-1" points="131.24 31.05 131.24 9.04 129.33 9.04 129.33 7.1 134.07 7.1 134.07 31.05 131.24 31.05"/><polygon class="cls-1" points="155.36 31.05 144.76 11.56 143.26 8.95 143.26 31.05 140.53 31.05 140.53 9.04 138.62 9.04 138.62 7.1 145.19 7.1 153.68 23.08 155.19 25.71 155.19 7.1 157.88 7.1 157.88 31.05 155.36 31.05"/><polygon class="cls-1" points="183.98 31.05 183.98 10.7 175.55 23.84 167.1 10.79 167.1 31.05 164.34 31.05 164.34 9.04 162.43 9.04 162.43 7.1 167.81 7.1 175.55 19.75 183.33 7.1 186.7 7.1 186.7 31.05 183.98 31.05"/><path class="cls-1" d="M-31.27-181.22l-2.28-6.7H-43.91l-2.24,6.7h-2.6l7.56-22h-1v-1.94h5.42l8.05,23.95Zm-11.92-9h8.91l-4.35-13.44Z" transform="translate(240 212)"/><polygon class="cls-1" points="217.73 30.78 217.73 8.77 215.82 8.77 215.82 6.83 220.55 6.83 220.55 30.78 217.73 30.78"/><polygon class="cls-1" points="225.1 30.78 225.1 6.83 227.93 6.83 227.93 28.35 237.6 28.35 237.6 30.78 225.1 30.78"/><path class="cls-1" d="M11.18-180.82a12.35,12.35,0,0,1-9-3.48l1.92-1.77a9.49,9.49,0,0,0,7.14,3c5.34,0,5.91-3.07,5.91-4.39,0-3.27-2.84-4-7.16-5.2l-.3-.08c-3.45-.94-7-1.91-7-6.11,0-4,3.25-6.69,8.08-6.69a12.75,12.75,0,0,1,7.94,2.85l-1.87,1.92a9.2,9.2,0,0,0-6.23-2.41c-4.69,0-5.19,2.73-5.19,3.9,0,2.9,2.5,3.55,6.64,4.61l.33.08c3.85,1,7.48,1.89,7.48,6.53C19.81-183.6,16.5-180.82,11.18-180.82Z" transform="translate(240 212)"/><path class="cls-1" d="M-205-210.39l-14.6,25.91a8.57,8.57,0,0,1-4.89,4,7.3,7.3,0,0,1-5.78-.56,7.28,7.28,0,0,1-3.47-4.65,8.61,8.61,0,0,1,.9-6.26l8.3-15.06h-6.93l-6.59,12.12a14.48,14.48,0,0,0-1.49,10.64,13.18,13.18,0,0,0,6.34,8.43,12.94,12.94,0,0,0,6.42,1.68,13.4,13.4,0,0,0,4.08-.63,14.46,14.46,0,0,0,8.33-6.79l14.6-25.91Z" transform="translate(240 212)"/><path class="cls-1" d="M-201.64-210.31a13.16,13.16,0,0,0-10.5-1.06,14.52,14.52,0,0,0-8.32,6.79l-8.61,15.27a3,3,0,0,0,1.14,4.08h0a3,3,0,0,0,4.08-1.14l8.61-15.27a8.5,8.5,0,0,1,4.88-4,7.26,7.26,0,0,1,5.78.56c3.65,2.05,4.8,7,2.57,10.91l-8.19,14.06h6.93l6.48-11.12C-192.94-198.08-195.12-206.64-201.64-210.31Z" transform="translate(240 212)"/></g></g></svg>