<svg xmlns="http://www.w3.org/2000/svg" viewBox="0 0 250.74 36.89"><defs><style>.cls-1{fill:#fff;}</style></defs><title>Asset 113</title><g id="Layer_2" data-name="Layer 2"><g id="Layer_1-2" data-name="Layer 1"><g id="_4TvqBE.tif" data-name="4TvqBE.tif"><path class="cls-1" d="M32.15,34.65,30,34.32,22.08,33.2l-6.48-.91-.45-.07V19.53H32.42V34.65Z"/><path class="cls-1" d="M32.42,17.37H15.15V4.75L19,4.2l8.61-1.26,4.37-.63.22-.07h.27Z"/><path class="cls-1" d="M0,19.53H12.94V32l-2.66-.37L2.19,30.46,0,30.13Z"/><path class="cls-1" d="M0,6.83,13,5.08V17.37H0Z"/></g><g id="nOcHSK.tif"><path class="cls-1" d="M87.47,11.39A6.75,6.75,0,0,0,83.9,18c.21,2.93,1.85,4.84,4.42,6.12-.18.46-.35.94-.55,1.41a18.77,18.77,0,0,1-3.63,5.51A5,5,0,0,1,82,32.45a3.91,3.91,0,0,1-2.32,0c-.66-.19-1.3-.43-1.94-.66a6.82,6.82,0,0,0-4.93.09,13.61,13.61,0,0,1-2.16.7,3.57,3.57,0,0,1-2.86-.65,10.57,10.57,0,0,1-2-2,20.18,20.18,0,0,1-3.93-7.78,16.3,16.3,0,0,1-.55-5,9.79,9.79,0,0,1,2.08-5.89,8,8,0,0,1,5.52-3,7,7,0,0,1,2.9.4l2.23.77c.13,0,.27.07.4.12a1.85,1.85,0,0,0,1.27-.05c.89-.3,1.77-.61,2.67-.9a7.28,7.28,0,0,1,2.52-.45,8,8,0,0,1,6,2.48C87.08,10.9,87.26,11.14,87.47,11.39Z"/><path class="cls-1" d="M74.85,8.15a5.78,5.78,0,0,1,.47-3A7.5,7.5,0,0,1,80.6.72c.21,0,.44-.08.66-.11l.28,0c0,.26,0,.5,0,.75a6.84,6.84,0,0,1-1.79,4.42,7.29,7.29,0,0,1-2.64,2A5,5,0,0,1,75,8.18h-.09Z"/></g><g id="C1FwPI.tif"><path class="cls-1" d="M138.68,36.89l-21.47-4.5v-28c0-.15,0-.2.19-.23l9.16-1.76L137.79.17l.89-.17ZM133,18.34c0-.3,0-.59-.05-.88a7.19,7.19,0,0,0-.75-2.88,4.41,4.41,0,0,0-7-1.44,5.67,5.67,0,0,0-1.43,2.19,9.16,9.16,0,0,0-.52,3.74,7.06,7.06,0,0,0,.78,3.16,4.41,4.41,0,0,0,3.59,2.59,4.35,4.35,0,0,0,2.64-.55,5.19,5.19,0,0,0,2.07-2.46A9,9,0,0,0,133,18.34Z"/><path class="cls-1" d="M140.06,27.54v-9.8l.14.09,2.1,1.45a.68.68,0,0,0,.82,0l10.45-7,.12-.08a1,1,0,0,1,0,.16V25.54a2.51,2.51,0,0,1-.11.72,1.77,1.77,0,0,1-1.78,1.28H140.06Z"/><path class="cls-1" d="M140.05,7.82h.2c4,0,8,0,11.95,0a1.45,1.45,0,0,1,1.35.86.77.77,0,0,1,.07.16c.15.4.13.44-.22.68l-10.44,7a.39.39,0,0,1-.49,0l-2.31-1.45a.22.22,0,0,1-.11-.22V7.82Z"/><path class="cls-1" d="M125.54,18.44a7,7,0,0,1,.43-2.36A3.19,3.19,0,0,1,126.7,15a2,2,0,0,1,3,.17,3.67,3.67,0,0,1,.76,1.72,8,8,0,0,1-.1,3.55,3.36,3.36,0,0,1-.67,1.3,2.07,2.07,0,0,1-3.16,0,3.75,3.75,0,0,1-.83-1.89C125.62,19.35,125.59,18.89,125.54,18.44Z"/></g><g id="mzzQR7.tif"><path class="cls-1" d="M207.35,14.45h18.82a1.23,1.23,0,0,1,.49.13,1.39,1.39,0,0,1,.83,1.33V28a1.53,1.53,0,0,1,0,.3,1.41,1.41,0,0,1-1.23,1.14c-.29,0-.58,0-.87,0h-18a1.37,1.37,0,0,1-.69-.18A1.39,1.39,0,0,1,206,28V15.93a1.93,1.93,0,0,1,0-.24,1.43,1.43,0,0,1,1-1.18C207.12,14.48,207.24,14.47,207.35,14.45Zm18.11,3.12-.07.05-1.65,1.23c-2.29,1.71-4.57,3.41-6.91,5.06a.17.17,0,0,1-.2,0c-1.34-1-2.69-1.93-4-2.91q-2.28-1.68-4.54-3.38l-.07,0V28.76h17.46Zm-1-2.4H209l.06,0,7.61,5.69a.18.18,0,0,0,.22,0L224,15.57Z"/></g><path class="cls-1" d="M198.13,17.38c1.77,0,3.54,0,5.32,0,.29,0,.4.08.44.37.88,7.07-3.73,11.68-9.06,12.55a12.27,12.27,0,0,1-7.56-.88,11.77,11.77,0,0,1-7-9.66A11.84,11.84,0,0,1,182,11.64a11.81,11.81,0,0,1,10-5.72,12.63,12.63,0,0,1,7,1.75,10.08,10.08,0,0,1,1.91,1.54c.15.16.16.26,0,.42-.61.59-1.2,1.19-1.8,1.79-.12.12-.19.16-.34,0a8.48,8.48,0,0,0-7-2.59,8.66,8.66,0,0,0-7.51,5A10,10,0,0,0,186,25.05a9.09,9.09,0,0,0,7.57,2.5,8.15,8.15,0,0,0,5.27-2.47,8,8,0,0,0,2.09-4.63c0-.27-.14-.23-.29-.23H192.8c-.3,0-.41-.06-.4-.38,0-.7,0-1.39,0-2.09,0-.29.08-.37.37-.37C194.56,17.39,196.34,17.38,198.13,17.38Z"/><path class="cls-1" d="M242.34,24.37c0,1.54,0,3.08,0,4.62,0,.28-.06.39-.36.38q-1,0-2,0c-.27,0-.37-.06-.36-.35,0-.48,0-1,0-1.46,0-.08,0-.19-.06-.22s-.14.08-.19.14a5.56,5.56,0,0,1-2.54,2,6.28,6.28,0,0,1-6.62-1.66A4.8,4.8,0,0,1,232,20.36a9.3,9.3,0,0,1,4.92-.62,6.86,6.86,0,0,1,2.5.69c.27.14.25,0,.27-.2a3.7,3.7,0,0,0-3.55-3.78,4.25,4.25,0,0,0-3.84,1.73c-.15.19-.25.2-.45.08-.63-.42-1.27-.83-1.92-1.21-.25-.15-.25-.26-.08-.48A6.7,6.7,0,0,1,234.73,14a9.07,9.07,0,0,1,3.24.24A5.68,5.68,0,0,1,242.34,20c0,1.47,0,2.93,0,4.4Zm-7.17,3a4.66,4.66,0,0,0,4.48-4,.57.57,0,0,0-.3-.6,6.39,6.39,0,0,0-3.78-.79,4.18,4.18,0,0,0-2.84,1.17,2.29,2.29,0,0,0,.19,3.48A3.33,3.33,0,0,0,235.17,27.34Z"/><path class="cls-1" d="M250.73,7.63c0,.11,0,.22,0,.33V29.07c0,.11,0,.22,0,.33-.77,0-1.54,0-2.31,0-.39,0-.46-.11-.46-.47q0-6.33,0-12.66,0-4.14,0-8.28c0-.3.07-.41.39-.4C249.14,7.64,249.93,7.62,250.73,7.63Z"/><path class="cls-1" d="M246.54,22c0,2.36,0,4.72,0,7.08,0,.33-.09.41-.41.4-.7,0-1.39,0-2.09,0-.24,0-.31-.07-.31-.32q0-7.15,0-14.33c0-.24.08-.31.31-.31q1.06,0,2.13,0c.29,0,.37.08.37.37Q246.53,18.4,246.54,22Z"/><path class="cls-1" d="M245.14,7.36a2,2,0,1,1-2,2A2,2,0,0,1,245.14,7.36Z"/><path class="cls-1" d="M250.73,7.63c-.8,0-1.59,0-2.38,0-.32,0-.39.1-.39.4q0,4.14,0,8.28,0,6.33,0,12.66c0,.36.07.48.46.47.77,0,1.54,0,2.31,0-.07.18-.23.11-.35.11-.7,0-1.39,0-2.09,0-.35,0-.43-.11-.43-.44,0-4.63,0-9.27,0-13.9,0-2.39,0-4.79,0-7.18,0-.36.08-.51.46-.49.69,0,1.37,0,2.06,0C250.5,7.52,250.65,7.45,250.73,7.63Z"/></g></g></svg>